<svg id="ipflogo__Lager_1" xmlns="http://www.w3.org/2000/svg" x="0" y="0" viewBox="0 0 164 100" xml:space="preserve" class="w-auto h-full"><style>.ipflogo__st1{fill:#fff}.ipflogo__st2{fill:#e31713}.ipflogo__st3{fill:#f2a1b0}.ipflogo__st4{fill:#f2f2f2}.ipflogo__st6{fill:#352760}</style><path fill="none" d="M.28 0h163.44v100H.28z"></path><path class="ipflogo__st1" d="M83.58 42.49L78.01 76.8l8.12 1.7 2.78-12.83 13.3-.62 6.95-8.5-.85-9.81-8.66-5.1zM119.05 43.49l-4.25 33.08 7.65 2.32 2.94-14.3 12.44-.93 1.24-5.41-12.75-1.31 1.39-6.34 13.83-.93 1.01-6.41-22.03-1.32z"></path><path id="ipflogo___x33__2_" class="ipflogo__st2" d="M11.56 23.99c.79 7.53-1.05 13.89-4.11 14.21-3.06.32-6.19-5.52-6.98-13.05-.79-7.53 1.05-13.89 4.11-14.21 3.06-.32 6.19 5.52 6.98 13.05z"></path><path id="ipflogo__b_6_" class="ipflogo__st3" d="M14.05 23.39c.79 7.53-1.05 13.89-4.11 14.21-3.06.32-6.19-5.52-6.98-13.05-.79-7.53 1.05-13.89 4.11-14.21 3.06-.32 6.19 5.52 6.98 13.05z"></path><path id="ipflogo___x32__2_" class="ipflogo__st2" d="M15.95 23.27c.79 7.53-1.05 13.89-4.11 14.21-3.06.32-6.19-5.52-6.98-13.05-.79-7.53 1.05-13.89 4.11-14.21 3.06-.32 6.19 5.53 6.98 13.05z"></path><path id="ipflogo__a_6_" class="ipflogo__st3" d="M19.03 23.16c.79 7.53-1.05 13.89-4.11 14.21-3.06.32-6.19-5.52-6.98-13.05-.79-7.53 1.05-13.89 4.11-14.21 3.07-.32 6.19 5.52 6.98 13.05z"></path><path id="ipflogo___x31__2_" class="ipflogo__st2" d="M20.81 23.16c.79 7.53-1.05 13.89-4.11 14.21-3.06.32-6.19-5.52-6.98-13.05-.79-7.53 1.05-13.89 4.11-14.21 3.07-.32 6.19 5.52 6.98 13.05z"></path><path id="ipflogo___x33__1_" class="ipflogo__st2" d="M62.77 24.1c-.79 7.53 1.05 13.89 4.11 14.21 3.06.32 6.19-5.52 6.98-13.05.79-7.53-1.05-13.89-4.11-14.21-3.07-.32-6.19 5.53-6.98 13.05z"></path><path id="ipflogo__b_1_" class="ipflogo__st3" d="M60.27 23.51c-.79 7.53 1.05 13.89 4.11 14.21 3.06.32 6.19-5.52 6.98-13.05.79-7.53-1.05-13.89-4.11-14.21-3.06-.32-6.19 5.52-6.98 13.05z"></path><path id="ipflogo___x32__1_" class="ipflogo__st2" d="M58.37 23.39c-.79 7.53 1.05 13.89 4.11 14.21 3.06.32 6.19-5.52 6.98-13.05.79-7.53-1.05-13.89-4.11-14.21-3.06-.32-6.18 5.52-6.98 13.05z"></path><path id="ipflogo__a_1_" class="ipflogo__st3" d="M55.29 23.27c-.79 7.53 1.05 13.89 4.11 14.21 3.06.32 6.19-5.52 6.98-13.05.79-7.53-1.05-13.89-4.11-14.21-3.06-.32-6.19 5.53-6.98 13.05z"></path><path id="ipflogo___x31__1_" class="ipflogo__st2" d="M53.47 23.06c-.79 7.53 1.05 13.89 4.11 14.21 3.06.32 6.19-5.52 6.98-13.05.79-7.53-1.05-13.89-4.11-14.21-3.06-.32-6.19 5.52-6.98 13.05z"></path><path id="ipflogo__ansatzlinks_2_" class="ipflogo__st4" d="M19.04 22.7c.3 1.4-.08 2.67-.85 2.84-.78.17-1.65-.83-1.95-2.23-.3-1.4.08-2.67.85-2.84.78-.17 1.65.83 1.95 2.23z"></path><path id="ipflogo__ansatzlinks_1_" class="ipflogo__st4" d="M55.04 22.77c.23-1.41 1.05-2.46 1.84-2.33.78.13 1.23 1.38 1 2.79-.23 1.42-1.05 2.46-1.83 2.33-.8-.12-1.25-1.37-1.01-2.79z"></path><g id="ipflogo__XMLID_48_"><path class="ipflogo__st2" d="M54.29 21.26c.87.18 3.11.63 2.59 2.5-.3 1.09-2.55.58-3.72.37-13.17-2.41-19.14-2.43-32.55-.22-1.05.17-3 .8-3.38-.08-.8-1.85.92-2.42 2.43-2.71 12.09-2.34 22.44-2.34 34.63.14z"></path></g><linearGradient id="ipflogo__SVGID_1_" gradientUnits="userSpaceOnUse" x1="95.518" y1="12.812" x2="156.204" y2="63.733"><stop offset="0.017" stop-color="#34265f" stop-opacity="0"></stop><stop offset="0.147" stop-color="#34265f" stop-opacity="0.147"></stop><stop offset="0.905" stop-color="#34265f"></stop></linearGradient><path d="M84.34 26.34l-4.15 4.75 53.88.12s30.97-.24 23.73 27.29c-.48 2.49.83 3.09 2.49.12 1.14-2.04 7.12-11.87 0-22.07-1.74-2.11-5.13-5.38-9.97-7.36-4.48-1.83-10.25-2.42-15.9-2.85-28.84-.35-50.08 0-50.08 0z" fill="url(#ipflogo__SVGID_1_)"></path><path class="ipflogo__st3" d="M23.79 28.24s8.33 9.9 9.12 22.07c.78 12.16-.95 38.92 30.54 38.92l-.08-5.93s-15.63 1.54-20.56-12.96c-.81-2.18-1.27-4.29-1.54-6.75-.29-2.69-.34-5.8-.34-9.88 0-15.18 9.24-25.47 9.24-25.47h-6.39S40.21 32.42 37 44.38c-2.77-11.98-6.78-16.14-6.78-16.14h-6.43z"></path><path class="ipflogo__st2" d="M36.27 48.07c.73-3.93.71-3.94.71-3.94l.74 3.91s3.21-13.51 7.73-19.8h2.29s-8 7.31-8.5 29.79c-.51 22.54 14.48 25.15 24.13 25.27l78.33.05c2.71 0 4.38-.46 5.65-.98 1.28-.52 2.05.24 1.72 1.27-1.08 3.37-5.62 6.31-8.49 6.31H63.37s-27.79 2.69-28.55-31.12c-.53-23.85-8.62-30.59-8.62-30.59h2.29s3.83 4.3 7.78 19.83z"></path><path class="ipflogo__st1" d="M71.53 45.36c.05-.34.01-.46.01-.46s-.51-.58-3.14-.58h-.3c-1.6-.01-1.87.02-2.11 1.37-.26 1.5-1.21 7.34-2.22 13.53-1.22 7.47-2.48 15.2-2.74 16.62-.07.39-.06.62-.05.72.14.05.5.16 1.31.16.41 0 .85.02 1.29.05 2.63.15 2.73-.06 2.88-1.36.35-3.06 2.74-16.66 4.16-24.78.49-2.81.84-4.83.91-5.27z"></path><path class="ipflogo__st6" d="M74.66 42.22c-1.18-1.38-3.17-2.02-6.27-2.02h-.27c-1.47-.01-5.36-.04-6.2 4.79-.26 1.52-1.22 7.37-2.23 13.57-1.16 7.11-2.47 15.16-2.73 16.55-.31 1.7-.04 3.08.81 4.1 1.22 1.46 3.15 1.63 4.5 1.63.34 0 .69.02 1.05.04.37.02.8.05 1.27.05 2.28 0 5.42-.59 5.93-5.05.34-2.94 2.8-16.99 4.13-24.54.5-2.84.86-4.89.93-5.35.25-1.5-.06-2.77-.92-3.77zM63.58 76.77c-.45-.03-.88-.05-1.29-.05-.82 0-1.18-.1-1.31-.16-.01-.1-.02-.33.05-.72.26-1.42 1.52-9.15 2.74-16.62 1.01-6.19 1.96-12.03 2.22-13.53.24-1.35.51-1.38 2.11-1.37h.3c2.64 0 3.14.58 3.14.58s.05.11-.01.46c-.07.44-.42 2.46-.92 5.27-1.42 8.12-3.81 21.71-4.16 24.78-.14 1.3-.24 1.51-2.87 1.36zM84.81 80.9H80c-1.19 0-2.22-.43-3-1.25-1.45-1.53-1.42-3.81-1.4-4.26l.03-.24c.04-.26 4.33-26.19 4.85-29.87.27-1.9 1.02-3.32 2.22-4.22a4.58 4.58 0 013.04-.9c.86-.02 6.38-.11 13.74-.11 9.25 0 11.72 8.25 11.72 13.13 0 3.93-1.75 7.79-5.2 11.46-3.49 3.71-8.48 4.11-10.46 4.11h-4.87c-.38 2.32-1.04 6.33-1.38 8.09-.7 3.59-2.75 4.06-4.48 4.06zm.16-3.96zm-5.26-1.26c.01.44.13.99.27 1.13l4.67-.03h.4c.05-.13.13-.35.19-.71.47-2.44 1.63-9.63 1.64-9.7l.28-1.73h8.37c1.13 0 5.01-.2 7.47-2.81 2.71-2.88 4.08-5.79 4.08-8.64 0-.92-.21-9.01-7.6-9.01-7.94 0-13.72.11-13.78.11l-.3.01-.03-.01c-.45.06-.72.85-.83 1.59-.51 3.61-4.45 27.48-4.83 29.8z"></path><path class="ipflogo__st6" d="M96.01 59.43c-2.16 0-5.57-.08-5.57-.08l-2.37-.05 1.8-10.81h5.78c.43-.02 3.16-.06 4.81 1.78.64.72 1.34 1.98 1.03 3.93-.62 3.81-2.1 5.23-5.48 5.23zm-3.09-4.15c1.01.02 2.17.03 3.1.03.74 0 .95-.06.99-.08-.02 0 .2-.32.42-1.68.04-.26.03-.46-.03-.53-.26-.29-1.2-.43-1.64-.41h-2.39l-.45 2.67zM120.77 81.05c-.24 0-.44-.02-.6-.04-.55-.03-2.04-.01-3.87-.12-2.86-.17-4.07-2.88-3.99-5.32l.02-.25c.04-.25 3.92-25.37 4.55-29.69.33-2.25 1.19-3.85 2.55-4.75 1.2-.8 2.39-.78 2.98-.69h17.22c2.21-.01 3.51.86 4.18 1.62 1.3 1.46 1.22 3.3 1.18 3.76-.01.2-.09 1.09-.33 3.02-.28 2.27-1.83 4.97-7.63 4.97h-.01c-.91 0-5.22.01-7.69.02l-.31 1.91c2.21.02 5.44.05 7.41.05 1.99 0 3.07.87 3.63 1.61 1.16 1.52.87 3.42.72 4.08l-.1.8c-.46 3.62-3.39 5.04-4.87 5.29l-.33.03h-8.44c-.36 2.23-1.01 6.16-1.47 8.92-.32 1.88-1.1 3.25-2.34 4.06-.91.59-1.81.72-2.46.72zm-.08-4.16l.13.06c.42.05.62-1.04.68-1.37.68-4.04 1.75-10.62 1.75-10.62l.28-1.73h11.72c.36-.11 1.2-.49 1.35-1.72l.17-1.2c.04-.18.05-.47.02-.62-.07-.02-.18-.03-.36-.03-3.23 0-9.85-.07-9.85-.07l-2.39-.03 1.64-10.09 1.74-.01s8.16-.03 9.4-.03h.01c3.43 0 3.55-.99 3.6-1.36.25-2.01.31-2.81.31-2.82l.01-.12c.01-.11-.03-.45-.16-.59-.11-.12-.46-.25-1.06-.24l-17.89-.03c-.26.09-.64.7-.82 1.96-.61 4.15-4.21 27.44-4.53 29.56.01.35.1.79.21.99 2.04.12 3.67.11 3.69.11h.35z"></path></svg>